#!OML:ASF E:/inclinewalkrobotboard/Project1/Captureday1/Session1/subject1.ASF
:FULLY-SPECIFIED
:DEGREES
76
root 0 0 0 1.0531875219749074 -3.6790929956407314 1.8629962983587767
lowerback 11.924775817344269 0.8571894306913981 -0.058410964171339036
upperback -4.224414514874957 1.086959749810457 -0.5566294651170699
thorax -11.298155520664402 0.49628064083591966 -0.8003089312069743
lowerneck -5.667645206077172 1.4462126138083438 4.565688111000123
upperneck 18.081239353938685 2.8824884626265934 -8.31890302577445
head 6.5886095193705145 1.0476627008477362 -3.221685594402383
rclavicle -8.982983224421445E-16 -3.4322704151981705E-16
rhumerus 20.15998824302541 14.709680988052154 -48.14010614798835
rradius 72.5449606208314
rwrist 26.73707564971706
rhand -34.75673237609661 -57.39425102072687
rfingers 7.125020000000038
rthumb -7.917998343765882 -87.3090229332759
lclavicle 9.003157031616346E-16 -1.7499008115060851E-15
lhumerus 20.85110712281716 -12.751388144440952 45.28201392007133
lradius 69.94594120915175
lwrist -22.275474287731853
lhand -44.77500088865695 -69.72570393845189
lfingers 7.125020000000029
lthumb -17.566391126967652 -40.52750981192866
rfemur -24.89439099419513 -2.2122915888894688 17.20835650585148
rtibia 54.048716282167284
rfoot -29.079452334486454 -16.732946926725393
rtoes -17.67198061967753
lfemur -26.677521478191927 2.4058375421081357 -18.29477497509121
ltibia 54.1662757876132
lfoot -31.061209592256414 -3.5288459538891304
ltoes -19.631059523703925
77
root 0 0 0 1.0529315344786427 -3.679563495826297 1.8629343804815068
lowerback 11.924770932778713 0.8571434822658532 -0.05830589166518743
upperback -4.224252806011506 1.0869197651666176 -0.5565323243563162
thorax -11.297966555245676 0.4962595916489102 -0.8002514350798725
lowerneck -5.66673887973651 1.4460826749223044 4.565781232354221
upperneck 18.080680529432414 2.8823478761384416 -8.319271134765415
head 6.5882753144885084 1.0476058329870241 -3.221830004695003
rclavicle -8.971746614503284E-16 -3.437084004734123E-16
rhumerus 20.16033977542692 14.710075276306105 -48.1399403588849
rradius 72.54519577890662
rwrist 26.736999211048424
rhand -34.75615424227791 -57.39351766564
rfingers 7.125020000000038
rthumb -7.9174457789894115 -87.30827860358927
lclavicle 9.017892961171936E-16 -1.750241885116922E-15
lhumerus 20.85134046782357 -12.751766556162016 45.28159652280854
lradius 69.9462163491187
lwrist -22.275545822410447
lhand -44.77480789931667 -69.72456173744021
lfingers 7.125020000000029
lthumb -17.56620654581586 -40.52634560022916
rfemur -24.894408343063688 -2.212290327595886 17.20837967741918
rtibia 54.04878595062363
rfoot -29.07944550198199 -16.732920561921325
rtoes -17.671866731151454
lfemur -26.677311237163874 2.405942891879139 -18.2947644565309
ltibia 54.16642189581091
lfoot -31.06096474826344 -3.528825682089541
ltoes -19.63125536332312
78
root 0 0 0 1.0537050915189528 -3.678121892117677 1.8631110232056416
lowerback 11.924854894638942 0.8572784911274607 -0.05855132271607494
upperback -4.224691620033639 1.0870428654523465 -0.5567993328195151
thorax -11.298509503665349 0.49632303294626223 -0.8004403076346668
lowerneck -5.669095465772671 1.4463642373555268 4.565479006380629
upperneck 18.0820491125544 2.8826067438992977 -8.318252215669707
head 6.589115309975911 1.0477127538060558 -3.2214344618943085
rclavicle -9.083238749784545E-16 -3.34804583324128E-16
rhumerus 20.160731344275383 14.709557468612182 -48.13963926031209
rradius 72.54539109336784
rwrist 26.737615909812185
rhand -34.7570084930942 -57.39489404987222
rfingers 7.125020000000038
rthumb -7.918320464783514 -87.30900416131306
lclavicle 8.938181974134069E-16 -1.7439411860894547E-15
lhumerus 20.851575848804522 -12.751873275215107 45.282261412525486
lradius 69.94629264139226
lwrist -22.275044017067206
lhand -44.77530967983134 -69.72615046498126
lfingers 7.1250200000000286
lthumb -17.56677248170972 -40.52804141892529
rfemur -24.89370974604332 -2.211791124157989 17.207453805804047
rtibia 54.04905647048169
rfoot -29.078842180613524 -16.733954267727707
rtoes -17.672431363983556
lfemur -26.678992315647037 2.406212189517163 -18.294809647107936
ltibia 54.16385019489244
lfoot -31.06307086838359 -3.526055004596432
ltoes -19.63178174914854
79
root 0 0 0 1.053264811432546 -3.6789615961617335 1.863012991338937
lowerback 11.924772369789592 0.8572032865843329 -0.05844287919209368
upperback -4.224461211514408 1.0869718710604654 -0.5566582343897803
thorax -11.298207366377332 0.4962870967643719 -0.8003251910950709
lowerneck -5.6679299824683635 1.4462544398678985 4.565661660507638
upperneck 18.08141553265516 2.8825355683232914 -8.318791349709567
head 6.588714863956186 1.047681689543592 -3.221641779398915
rclavicle -8.983303957517764E-16 -3.4393299235974063E-16
rhumerus 20.160052312130354 14.709712993056321 -48.140085974363075
rradius 72.54498945303332
rwrist 26.737101747028174
rhand -34.756726505680604 -57.394288433467764
rfingers 7.125020000000038
rthumb -7.917989242173593 -87.30904290207472
lclavicle 9.009073404796225E-16 -1.7504470109859006E-15
lhumerus 20.85115284887025 -12.751375303888896 45.282005634464795
lradius 69.94589085504028
lwrist -22.27543815834844
lhand -44.77500379187357 -69.72585868849913
lfingers 7.125020000000029
lthumb -17.566391481208925 -40.52765178956122
rfemur -24.8944234381357 -2.2122666962177004 17.20827520250177
rtibia 54.04865945818436
rfoot -29.079550230563598 -16.732987007936742
rtoes -17.67207873994795
lfemur -26.677378058772728 2.405850711533063 -18.294796704123154
ltibia 54.165255644785596
lfoot -31.06163903699369 -3.5284095684777506
ltoes -19.631587268034068
80
root 0 0 0 1.0531091482683697 -3.6792362861743366 1.8629790249497657
lowerback 11.924772438310388 0.857175741664332 -0.05837876097544156
upperback -4.22436526474954 1.0869478708447033 -0.5566007631912255
thorax -11.298096858532961 0.4962744129019489 -0.8002923401359037
lowerneck -5.667371749702129 1.446174437227073 4.56572059820523
upperneck 18.08107229140399 2.8824480232915626 -8.319018858443792
head 6.588509231898796 1.0476462621892044 -3.2217313484934733
rclavicle -8.976433099210497E-16 -3.4327403226018177E-16
rhumerus 20.16010076451668 14.70981764486546 -48.140062582804106
rradius 72.54503687995275
rwrist 26.737034272081623
rhand -34.75652400653145 -57.393953236943695
rfingers 7.125020000000038
rthumb -7.917798160916112 -87.30872344267887
lclavicle 9.01081044182581E-16 -1.7498855604670452E-15
lhumerus 20.85121437735304 -12.751576360568212 45.28184195833858
lradius 69.94607025537468
lwrist -22.275491986316666
lhand -44.77491565438983 -69.72516988361036
lfingers 7.125020000000029
lthumb -17.56630789902967 -40.52696662214099
rfemur -24.89439464697033 -2.212290192149857 17.2083585150409
rtibia 54.04871389567061
rfoot -29.07946362407446 -16.732937006699583
rtoes -17.67198976512717
lfemur -26.677336493299336 2.4058436107918237 -18.294764421427974
ltibia 54.166172812947444
lfoot -31.061197594859507 -3.5288132487403003
ltoes -19.63134274513043
